<?xml version="1.0" encoding="UTF-8" standalone="no"?>
<!-- Created with Inkscape (http://www.inkscape.org/) -->

<svg
   xmlns:dc="http://purl.org/dc/elements/1.1/"
   xmlns:cc="http://creativecommons.org/ns#"
   xmlns:rdf="http://www.w3.org/1999/02/22-rdf-syntax-ns#"
   xmlns:svg="http://www.w3.org/2000/svg"
   xmlns="http://www.w3.org/2000/svg"
   xmlns:sodipodi="http://sodipodi.sourceforge.net/DTD/sodipodi-0.dtd"
   xmlns:inkscape="http://www.inkscape.org/namespaces/inkscape"
   width="420"
   height="410"
   id="svg2"
   version="1.1"
   inkscape:version="0.48.3.1 r9886"
   sodipodi:docname="bisector.png">
  <sodipodi:namedview
     id="base"
     pagecolor="#ffffff"
     bordercolor="#666666"
     borderopacity="1.0"
     inkscape:pageopacity="0.0"
     inkscape:pageshadow="2"
     inkscape:zoom="1.1498047"
     inkscape:cx="209.31969"
     inkscape:cy="295.27708"
     inkscape:document-units="px"
     inkscape:current-layer="layer1"
     showgrid="false"
     inkscape:window-width="1920"
     inkscape:window-height="1003"
     inkscape:window-x="0"
     inkscape:window-y="24"
     inkscape:window-maximized="1" />
  <defs
     id="defs4">
    <marker
       inkscape:stockid="Arrow1Mstart"
       orient="auto"
       refY="0"
       refX="0"
       id="Arrow1Mstart"
       style="overflow:visible">
      <path
         id="path3767"
         d="M 0,0 5,-5 -12.5,0 5,5 0,0 z"
         style="fill-rule:evenodd;stroke:#000000;stroke-width:1pt"
         transform="matrix(0.4,0,0,0.4,4,0)"
         inkscape:connector-curvature="0" />
    </marker>
    <marker
       style="overflow:visible"
       id="Arrow1Mend"
       refX="0"
       refY="0"
       orient="auto"
       inkscape:stockid="Arrow1Mend">
      <path
         transform="matrix(-0.4,0,0,-0.4,-4,0)"
         style="fill-rule:evenodd;stroke:#000000;stroke-width:1pt"
         d="M 0,0 5,-5 -12.5,0 5,5 0,0 z"
         id="path3770"
         inkscape:connector-curvature="0" />
    </marker>
    <marker
       style="overflow:visible"
       id="Arrow1MendL"
       refX="0"
       refY="0"
       orient="auto"
       inkscape:stockid="Arrow1MendL">
      <path
         transform="matrix(-0.4,0,0,-0.4,-4,0)"
         style="fill:#0000ff;fill-rule:evenodd;stroke:#0000ff;stroke-width:1pt"
         d="M 0,0 5,-5 -12.5,0 5,5 0,0 z"
         id="path4206"
         inkscape:connector-curvature="0" />
    </marker>
    <marker
       inkscape:stockid="Arrow1Mstarty"
       orient="auto"
       refY="0"
       refX="0"
       id="Arrow1Mstarty"
       style="overflow:visible">
      <path
         id="path4608"
         d="M 0,0 5,-5 -12.5,0 5,5 0,0 z"
         style="fill:#00b1ff;fill-rule:evenodd;stroke:#00b1ff;stroke-width:1pt"
         transform="matrix(0.4,0,0,0.4,4,0)"
         inkscape:connector-curvature="0" />
    </marker>
    <marker
       style="overflow:visible"
       id="Arrow1MendG"
       refX="0"
       refY="0"
       orient="auto"
       inkscape:stockid="Arrow1MendG">
      <path
         transform="matrix(-0.4,0,0,-0.4,-4,0)"
         style="fill:#00b1ff;fill-rule:evenodd;stroke:#00b1ff;stroke-width:1pt"
         d="M 0,0 5,-5 -12.5,0 5,5 0,0 z"
         id="path4611"
         inkscape:connector-curvature="0" />
    </marker>
    <marker
       inkscape:stockid="Arrow1Mstarty"
       orient="auto"
       refY="0"
       refX="0"
       id="Arrow1Mstarty-5"
       style="overflow:visible">
      <path
         id="path4608-7"
         d="M 0,0 5,-5 -12.5,0 5,5 0,0 z"
         style="fill:#00b1ff;fill-rule:evenodd;stroke:#00b1ff;stroke-width:1pt"
         transform="matrix(0.4,0,0,0.4,4,0)"
         inkscape:connector-curvature="0" />
    </marker>
    <marker
       style="overflow:visible"
       id="Arrow1MendG-4"
       refX="0"
       refY="0"
       orient="auto"
       inkscape:stockid="Arrow1MendG">
      <path
         transform="matrix(-0.4,0,0,-0.4,-4,0)"
         style="fill:#00b1ff;fill-rule:evenodd;stroke:#00b1ff;stroke-width:1pt"
         d="M 0,0 5,-5 -12.5,0 5,5 0,0 z"
         id="path4611-4"
         inkscape:connector-curvature="0" />
    </marker>
    <marker
       inkscape:stockid="Arrow1Mstartyc"
       orient="auto"
       refY="0"
       refX="0"
       id="Arrow1Mstartyc"
       style="overflow:visible">
      <path
         id="path4682"
         d="M 0,0 5,-5 -12.5,0 5,5 0,0 z"
         style="fill:#ff0000;fill-rule:evenodd;stroke:#ff0000;stroke-width:1pt"
         transform="matrix(0.4,0,0,0.4,4,0)"
         inkscape:connector-curvature="0" />
    </marker>
    <marker
       style="overflow:visible"
       id="Arrow1MendGa"
       refX="0"
       refY="0"
       orient="auto"
       inkscape:stockid="Arrow1MendGa">
      <path
         transform="matrix(-0.4,0,0,-0.4,-4,0)"
         style="fill:#ff0000;fill-rule:evenodd;stroke:#ff0000;stroke-width:1pt"
         d="M 0,0 5,-5 -12.5,0 5,5 0,0 z"
         id="path4685"
         inkscape:connector-curvature="0" />
    </marker>
    <marker
       inkscape:stockid="Arrow1MstartycG"
       orient="auto"
       refY="0"
       refX="0"
       id="Arrow1MstartycG"
       style="overflow:visible">
      <path
         id="path4994"
         d="M 0,0 5,-5 -12.5,0 5,5 0,0 z"
         style="fill:#000000;fill-rule:evenodd;stroke:#000000;stroke-width:1pt"
         transform="matrix(0.4,0,0,0.4,4,0)"
         inkscape:connector-curvature="0" />
    </marker>
    <marker
       style="overflow:visible"
       id="Arrow1MendGad"
       refX="0"
       refY="0"
       orient="auto"
       inkscape:stockid="Arrow1MendGad">
      <path
         transform="matrix(-0.4,0,0,-0.4,-4,0)"
         style="fill:#000000;fill-rule:evenodd;stroke:#000000;stroke-width:1pt"
         d="M 0,0 5,-5 -12.5,0 5,5 0,0 z"
         id="path4997"
         inkscape:connector-curvature="0" />
    </marker>
    <marker
       inkscape:stockid="Arrow1MstartyQ"
       orient="auto"
       refY="0"
       refX="0"
       id="Arrow1MstartyQ"
       style="overflow:visible">
      <path
         id="path5062"
         d="M 0,0 5,-5 -12.5,0 5,5 0,0 z"
         style="fill:#000000;fill-rule:evenodd;stroke:#000000;stroke-width:1pt"
         transform="matrix(0.4,0,0,0.4,4,0)"
         inkscape:connector-curvature="0" />
    </marker>
    <marker
       style="overflow:visible"
       id="Arrow1MendGX"
       refX="0"
       refY="0"
       orient="auto"
       inkscape:stockid="Arrow1MendGX">
      <path
         transform="matrix(-0.4,0,0,-0.4,-4,0)"
         style="fill:#000000;fill-rule:evenodd;stroke:#000000;stroke-width:1pt"
         d="M 0,0 5,-5 -12.5,0 5,5 0,0 z"
         id="path5065"
         inkscape:connector-curvature="0" />
    </marker>
    <marker
       inkscape:stockid="Arrow1MstartycGa"
       orient="auto"
       refY="0"
       refX="0"
       id="Arrow1MstartycGa"
       style="overflow:visible">
      <path
         id="path5138"
         d="M 0,0 5,-5 -12.5,0 5,5 0,0 z"
         style="fill:#000000;fill-rule:evenodd;stroke:#000000;stroke-width:1pt"
         transform="matrix(0.4,0,0,0.4,4,0)"
         inkscape:connector-curvature="0" />
    </marker>
    <marker
       style="overflow:visible"
       id="Arrow1MendGadB"
       refX="0"
       refY="0"
       orient="auto"
       inkscape:stockid="Arrow1MendGadB">
      <path
         transform="matrix(-0.4,0,0,-0.4,-4,0)"
         style="fill:#000000;fill-rule:evenodd;stroke:#000000;stroke-width:1pt"
         d="M 0,0 5,-5 -12.5,0 5,5 0,0 z"
         id="path5141"
         inkscape:connector-curvature="0" />
    </marker>
    <marker
       inkscape:stockid="Arrow1MstartycGaT"
       orient="auto"
       refY="0"
       refX="0"
       id="Arrow1MstartycGaT"
       style="overflow:visible">
      <path
         id="path5222"
         d="M 0,0 5,-5 -12.5,0 5,5 0,0 z"
         style="fill:#7d7d7d;fill-rule:evenodd;stroke:#7d7d7d;stroke-width:1pt"
         transform="matrix(0.4,0,0,0.4,4,0)"
         inkscape:connector-curvature="0" />
    </marker>
    <marker
       style="overflow:visible"
       id="Arrow1MendGadBm"
       refX="0"
       refY="0"
       orient="auto"
       inkscape:stockid="Arrow1MendGadBm">
      <path
         transform="matrix(-0.4,0,0,-0.4,-4,0)"
         style="fill:#7d7d7d;fill-rule:evenodd;stroke:#7d7d7d;stroke-width:1pt"
         d="M 0,0 5,-5 -12.5,0 5,5 0,0 z"
         id="path5225"
         inkscape:connector-curvature="0" />
    </marker>
    <marker
       inkscape:stockid="Arrow1MstartyQd"
       orient="auto"
       refY="0"
       refX="0"
       id="Arrow1MstartyQd"
       style="overflow:visible">
      <path
         id="path5314"
         d="M 0,0 5,-5 -12.5,0 5,5 0,0 z"
         style="fill:#7d7d7d;fill-rule:evenodd;stroke:#7d7d7d;stroke-width:1pt"
         transform="matrix(0.4,0,0,0.4,4,0)"
         inkscape:connector-curvature="0" />
    </marker>
    <marker
       style="overflow:visible"
       id="Arrow1MendGXv"
       refX="0"
       refY="0"
       orient="auto"
       inkscape:stockid="Arrow1MendGXv">
      <path
         transform="matrix(-0.4,0,0,-0.4,-4,0)"
         style="fill:#7d7d7d;fill-rule:evenodd;stroke:#7d7d7d;stroke-width:1pt"
         d="M 0,0 5,-5 -12.5,0 5,5 0,0 z"
         id="path5317"
         inkscape:connector-curvature="0" />
    </marker>
    <marker
       inkscape:stockid="Arrow1MstartycGaT"
       orient="auto"
       refY="0"
       refX="0"
       id="Arrow1MstartycGaT-0"
       style="overflow:visible">
      <path
         id="path5222-6"
         d="M 0,0 5,-5 -12.5,0 5,5 0,0 z"
         style="fill:#7d7d7d;fill-rule:evenodd;stroke:#7d7d7d;stroke-width:1pt"
         transform="matrix(0.4,0,0,0.4,4,0)"
         inkscape:connector-curvature="0" />
    </marker>
    <marker
       style="overflow:visible"
       id="Arrow1MendGadBm-5"
       refX="0"
       refY="0"
       orient="auto"
       inkscape:stockid="Arrow1MendGadBm">
      <path
         transform="matrix(-0.4,0,0,-0.4,-4,0)"
         style="fill:#7d7d7d;fill-rule:evenodd;stroke:#7d7d7d;stroke-width:1pt"
         d="M 0,0 5,-5 -12.5,0 5,5 0,0 z"
         id="path5225-3"
         inkscape:connector-curvature="0" />
    </marker>
    <marker
       inkscape:stockid="Arrow1MstartycGaT"
       orient="auto"
       refY="0"
       refX="0"
       id="Arrow1MstartycGaT-3"
       style="overflow:visible">
      <path
         id="path5222-3"
         d="M 0,0 5,-5 -12.5,0 5,5 0,0 z"
         style="fill:#7d7d7d;fill-rule:evenodd;stroke:#7d7d7d;stroke-width:1pt"
         transform="matrix(0.4,0,0,0.4,4,0)"
         inkscape:connector-curvature="0" />
    </marker>
    <marker
       style="overflow:visible"
       id="Arrow1MendGadBm-9"
       refX="0"
       refY="0"
       orient="auto"
       inkscape:stockid="Arrow1MendGadBm">
      <path
         transform="matrix(-0.4,0,0,-0.4,-4,0)"
         style="fill:#7d7d7d;fill-rule:evenodd;stroke:#7d7d7d;stroke-width:1pt"
         d="M 0,0 5,-5 -12.5,0 5,5 0,0 z"
         id="path5225-8"
         inkscape:connector-curvature="0" />
    </marker>
    <marker
       inkscape:stockid="Arrow1MstartycGaT5"
       orient="auto"
       refY="0"
       refX="0"
       id="Arrow1MstartycGaT5"
       style="overflow:visible">
      <path
         id="path5482"
         d="M 0,0 5,-5 -12.5,0 5,5 0,0 z"
         style="fill:#007dff;fill-rule:evenodd;stroke:#007dff;stroke-width:1pt"
         transform="matrix(0.4,0,0,0.4,4,0)"
         inkscape:connector-curvature="0" />
    </marker>
    <marker
       style="overflow:visible"
       id="Arrow1MendGadBmi"
       refX="0"
       refY="0"
       orient="auto"
       inkscape:stockid="Arrow1MendGadBmi">
      <path
         transform="matrix(-0.4,0,0,-0.4,-4,0)"
         style="fill:#007dff;fill-rule:evenodd;stroke:#007dff;stroke-width:1pt"
         d="M 0,0 5,-5 -12.5,0 5,5 0,0 z"
         id="path5485"
         inkscape:connector-curvature="0" />
    </marker>
    <marker
       inkscape:stockid="Arrow1MstartycGaT5"
       orient="auto"
       refY="0"
       refX="0"
       id="Arrow1MstartycGaT5-5"
       style="overflow:visible">
      <path
         id="path5482-9"
         d="M 0,0 5,-5 -12.5,0 5,5 0,0 z"
         style="fill:#007dff;fill-rule:evenodd;stroke:#007dff;stroke-width:1pt"
         transform="matrix(0.4,0,0,0.4,4,0)"
         inkscape:connector-curvature="0" />
    </marker>
    <marker
       style="overflow:visible"
       id="Arrow1MendGadBmi-3"
       refX="0"
       refY="0"
       orient="auto"
       inkscape:stockid="Arrow1MendGadBmi">
      <path
         transform="matrix(-0.4,0,0,-0.4,-4,0)"
         style="fill:#007dff;fill-rule:evenodd;stroke:#007dff;stroke-width:1pt"
         d="M 0,0 5,-5 -12.5,0 5,5 0,0 z"
         id="path5485-7"
         inkscape:connector-curvature="0" />
    </marker>
    <marker
       inkscape:stockid="Arrow1MstartycGaT5h"
       orient="auto"
       refY="0"
       refX="0"
       id="Arrow1MstartycGaT5h"
       style="overflow:visible">
      <path
         id="path5642"
         d="M 0,0 5,-5 -12.5,0 5,5 0,0 z"
         style="fill:#ff0000;fill-rule:evenodd;stroke:#ff0000;stroke-width:1pt"
         transform="matrix(0.4,0,0,0.4,4,0)"
         inkscape:connector-curvature="0" />
    </marker>
    <marker
       style="overflow:visible"
       id="Arrow1MendGadBmi0"
       refX="0"
       refY="0"
       orient="auto"
       inkscape:stockid="Arrow1MendGadBmi0">
      <path
         transform="matrix(-0.4,0,0,-0.4,-4,0)"
         style="fill:#ff0000;fill-rule:evenodd;stroke:#ff0000;stroke-width:1pt"
         d="M 0,0 5,-5 -12.5,0 5,5 0,0 z"
         id="path5645"
         inkscape:connector-curvature="0" />
    </marker>
    <marker
       inkscape:stockid="Arrow1MstartycGaT5hg"
       orient="auto"
       refY="0"
       refX="0"
       id="Arrow1MstartycGaT5hg"
       style="overflow:visible">
      <path
         id="path5870"
         d="M 0,0 5,-5 -12.5,0 5,5 0,0 z"
         style="fill:#007dff;fill-rule:evenodd;stroke:#007dff;stroke-width:1pt"
         transform="matrix(0.4,0,0,0.4,4,0)"
         inkscape:connector-curvature="0" />
    </marker>
    <marker
       style="overflow:visible"
       id="Arrow1MendGadBmi0s"
       refX="0"
       refY="0"
       orient="auto"
       inkscape:stockid="Arrow1MendGadBmi0s">
      <path
         transform="matrix(-0.4,0,0,-0.4,-4,0)"
         style="fill:#007dff;fill-rule:evenodd;stroke:#007dff;stroke-width:1pt"
         d="M 0,0 5,-5 -12.5,0 5,5 0,0 z"
         id="path5873"
         inkscape:connector-curvature="0" />
    </marker>
  </defs>
  <metadata
     id="metadata7">
    <rdf:RDF>
      <cc:Work
         rdf:about="">
        <dc:format>image/svg+xml</dc:format>
        <dc:type
           rdf:resource="http://purl.org/dc/dcmitype/StillImage" />
        <dc:title></dc:title>
      </cc:Work>
    </rdf:RDF>
  </metadata>
  <g
     transform="translate(0,-642.36218)"
     id="layer1"
     inkscape:groupmode="layer"
     inkscape:label="Layer 1">
    <path
       inkscape:connector-curvature="0"
       id="path2985"
       d="M 237.08646,653.76969 4.87311,872.06763 417.11704,1046.0102 z"
       style="fill:none;stroke:#000000;stroke-width:5;stroke-miterlimit:4;stroke-opacity:1;stroke-dasharray:none;stroke-dashoffset:0" />
    <path
       inkscape:connector-curvature="0"
       id="path3755"
       d="M 165.77,858.15223 316.23034,876.4162"
       style="fill:none;stroke:#0000ff;stroke-width:5;stroke-miterlimit:4;stroke-opacity:1;stroke-dasharray:none;stroke-dashoffset:0;marker-end:url(#Arrow1MendL)" />
    <path
       style="fill:none;stroke:#7d7d7d;stroke-width:5;stroke-miterlimit:4;stroke-opacity:1;stroke-dasharray:5, 5;stroke-dashoffset:0;marker-start:url(#Arrow1MstartyQd);marker-end:url(#Arrow1MendGXv)"
       d="M 64.883302,942.51438 273.6144,766.83237"
       id="path4222"
       inkscape:connector-curvature="0" />
    <rect
       style="fill:#ffffff;fill-opacity:1;stroke:none"
       id="rect4869"
       width="12.175981"
       height="20.87311"
       x="289.61441"
       y="216.91693"
       transform="translate(0,602.36218)"
       ry="1.3602931" />
    <path
       style="fill:none;stroke:#7d7d7d;stroke-width:5;stroke-miterlimit:4;stroke-opacity:1;stroke-dasharray:5, 5;stroke-dashoffset:0;marker-start:url(#Arrow1MstartycGaT);marker-end:url(#Arrow1MendGadBm)"
       d="M 145.52743,986.99725 190.88568,717.97036"
       id="path4222-3"
       inkscape:connector-curvature="0" />
    <path
       style="fill:none;stroke:#007dff;stroke-width:5;stroke-miterlimit:4;stroke-opacity:1;stroke-dasharray:none;stroke-dashoffset:0;marker-start:url(#Arrow1MstartycGaT5);marker-end:url(#Arrow1MendGadBmi)"
       d="M 97.682365,970.33042 239.24509,737.10771"
       id="path4222-3-8"
       inkscape:connector-curvature="0" />
    <path
       style="fill:none;stroke:#007dff;stroke-width:5;stroke-miterlimit:4;stroke-opacity:1;stroke-dasharray:none;stroke-dashoffset:0;marker-start:url(#Arrow1MstartycGaT5hg);marker-end:url(#Arrow1MendGadBmi0s)"
       d="M 59.07065,790.24398 292.29336,931.80669"
       id="path4222-3-8-6"
       inkscape:connector-curvature="0" />
    <path
       transform="translate(0,602.36218)"
       inkscape:connector-curvature="0"
       id="path5724"
       d="m 158.28775,246.48718 7.82742,-13.91541 9.56684,6.08799"
       style="fill:none;stroke:#000000;stroke-width:5;stroke-miterlimit:4;stroke-opacity:1;stroke-dasharray:none;stroke-dashoffset:0" />
    <text
       sodipodi:linespacing="125%"
       id="text5726"
       y="723.61072"
       x="213.07965"
       style="font-size:40px;font-style:normal;font-weight:normal;line-height:125%;letter-spacing:0px;word-spacing:0px;fill:#000000;fill-opacity:1;stroke:none;font-family:Sans"
       xml:space="preserve"><tspan
         y="0"
         x="0"
         id="tspan5728"
         sodipodi:role="line"><tspan
           id="tspan5730"
           style="font-size:65.00091553%;baseline-shift:sub" /></tspan></text>
    <text
       sodipodi:linespacing="125%"
       id="text5777"
       y="807.97284"
       x="260.04416"
       style="font-size:40px;font-style:normal;font-weight:normal;line-height:125%;letter-spacing:0px;word-spacing:0px;fill:#000000;fill-opacity:1;stroke:none;font-family:Sans"
       xml:space="preserve"><tspan
         y="807.97284"
         x="260.04416"
         id="tspan5779"
         sodipodi:role="line">v<tspan
   id="tspan5781"
   style="font-size:65.00091553%;baseline-shift:sub">i</tspan></tspan></text>
    <text
       sodipodi:linespacing="125%"
       id="text5783"
       y="771.44489"
       x="140.02379"
       style="font-size:40px;font-style:normal;font-weight:normal;line-height:125%;letter-spacing:0px;word-spacing:0px;fill:#000000;fill-opacity:1;stroke:none;font-family:Sans"
       xml:space="preserve"><tspan
         y="771.44489"
         x="140.02379"
         id="tspan5785"
         sodipodi:role="line">w<tspan
   id="tspan5787"
   style="font-size:65.00091553%;baseline-shift:sub">i</tspan></tspan></text>
    <text
       xml:space="preserve"
       style="font-size:40px;font-style:normal;font-weight:normal;line-height:125%;letter-spacing:0px;word-spacing:0px;fill:#000000;fill-opacity:1;stroke:none;font-family:Sans"
       x="214.81909"
       y="729.69867"
       id="text5976"
       sodipodi:linespacing="125%"><tspan
         sodipodi:role="line"
         id="tspan5978"
         x="214.81909"
         y="729.69867">b</tspan></text>
  </g>
</svg>
